<?xml version="1.0" encoding="UTF-8"?>
<!DOCTYPE svg PUBLIC "-//W3C//DTD SVG 1.1//EN" "http://www.w3.org/Graphics/SVG/1.1/DTD/svg11.dtd">
<!-- Creator: CorelDRAW -->
<svg xmlns="http://www.w3.org/2000/svg" xml:space="preserve" width="32.2356mm" height="32.2356mm" version="1.1" style="shape-rendering:geometricPrecision; text-rendering:geometricPrecision; image-rendering:optimizeQuality; fill-rule:evenodd; clip-rule:evenodd"
viewBox="0 0 60.61 60.61"
 xmlns:xlink="http://www.w3.org/1999/xlink"
 xmlns:xodm="http://www.corel.com/coreldraw/odm/2003">
 <defs>
  <style type="text/css">
   <![CDATA[
    .fil1 {fill:white}
    .fil0 {fill:#000037;fill-rule:nonzero}
   ]]>
  </style>
 </defs>
 <g id="Capa_x0020_1">
  <metadata id="CorelCorpID_0Corel-Layer"/>
  <rect class="fil0" y="0" width="60.61" height="60.61" rx="6.58" ry="6.58"/>
  <path class="fil1" d="M29.82 10.88c4.92,0 8.82,3.91 8.82,8.81 0.33,2.62 -0.98,5.57 -3.26,7.2 -1.32,0.98 -3.44,2.93 -3.44,6.04l0 0.98c0,1.14 -0.81,1.95 -1.97,1.95 -0.98,0 -1.79,-0.81 -1.79,-1.95l0 -0.98c0,-3.44 1.79,-6.69 4.9,-8.99 1.46,-0.98 2.3,-2.6 2.3,-4.25 0,-2.93 -2.46,-5.39 -5.4,-5.39 -2.77,0 -5.21,2.46 -5.21,5.39 0,0.98 -0.83,1.81 -1.81,1.81 -1.14,0 -1.95,-0.83 -1.95,-1.81 0,-4.9 3.91,-8.81 8.81,-8.81l0 0zm0.51 -3.6c-7.03,0 -12.58,5.39 -12.58,12.4 0,2.78 2.46,5.24 5.39,5.24 2.78,0 5.23,-2.46 5.23,-5.24 0,-0.98 0.81,-1.79 1.97,-1.79 0.98,0 1.79,0.81 1.79,1.79 0,0.65 -0.16,0.98 -0.81,1.3 -4.09,3.11 -6.38,7.36 -6.38,11.93l0 0.98c0,2.95 2.46,5.39 5.4,5.39 2.77,0 5.23,-2.44 5.23,-5.39l0 -0.98c0,-1.47 1.3,-2.62 2.12,-3.27 3.27,-2.28 5.06,-6.04 5.06,-9.96 -0.16,-7.02 -5.71,-12.4 -12.4,-12.4l0 0zm0 38.86c0.98,0 1.79,0.83 1.79,1.97 0,0.98 -0.98,1.79 -1.79,1.79 -1.16,0 -1.97,-0.81 -1.97,-1.79 0,-1.14 0.81,-1.97 1.97,-1.97l0 0zm0 -3.42c-2.95,0 -5.4,2.44 -5.4,5.39 0,2.78 2.46,5.23 5.4,5.23 2.77,0 5.23,-2.44 5.23,-5.23 0,-2.95 -2.46,-5.39 -5.23,-5.39l0 0z"/>
 </g>
</svg>
