<?xml version="1.0" encoding="UTF-8"?>
<!DOCTYPE svg PUBLIC "-//W3C//DTD SVG 1.1//EN" "http://www.w3.org/Graphics/SVG/1.1/DTD/svg11.dtd">
<!-- Creator: CorelDRAW -->
<svg xmlns="http://www.w3.org/2000/svg" xml:space="preserve" width="32.7961mm" height="32.7961mm" version="1.1" style="shape-rendering:geometricPrecision; text-rendering:geometricPrecision; image-rendering:optimizeQuality; fill-rule:evenodd; clip-rule:evenodd"
viewBox="0 0 51.34 51.34"
 xmlns:xlink="http://www.w3.org/1999/xlink"
 xmlns:xodm="http://www.corel.com/coreldraw/odm/2003">
 <defs>
  <style type="text/css">
   <![CDATA[
    .fil1 {fill:#000037;fill-rule:nonzero}
    .fil0 {fill:white;fill-rule:nonzero}
   ]]>
  </style>
 </defs>
 <g id="Capa_x0020_1">
  <metadata id="CorelCorpID_0Corel-Layer"/>
  <rect class="fil0" x="0" width="51.34" height="51.34" rx="5.57" ry="5.57"/>
  <path class="fil1" d="M26.87 23.42c1.24,0 2.25,1.01 2.25,2.25 0,1.25 -1.01,2.26 -2.25,2.26l0 -4.51 0 0zm-13.61 -3.39l0 11.27 -4.58 0 0 -11.27 4.58 0zm11.35 -7.03l0 25.33c-0.59,-0.68 -1.3,-1.43 -2.06,-2.2 -2.71,-2.67 -5.06,-4.26 -7.04,-4.7l0 -11.55c1.97,-0.45 4.33,-2.03 7.04,-4.7 0.76,-0.76 1.46,-1.52 2.06,-2.19l0 0zm1.14 -4.26c-0.35,0 -0.69,0.16 -0.9,0.45 -0.02,0.02 -1.69,2.22 -3.88,4.39 -2.72,2.7 -5.05,4.18 -6.57,4.18l-6.85 0c-0.62,0 -1.12,0.51 -1.12,1.13l0 13.54c0,0.62 0.51,1.13 1.12,1.13l6.85 0c1.52,0 3.84,1.47 6.56,4.16 2.19,2.18 3.87,4.39 3.89,4.41 0.21,0.29 0.55,0.45 0.9,0.45 0.12,0 0.23,-0.02 0.35,-0.06 0.46,-0.15 0.77,-0.58 0.77,-1.06l0 -11.28c2.48,0 4.51,-2.03 4.51,-4.51 0,-2.49 -2.03,-4.51 -4.51,-4.51l0 -11.28c0,-0.48 -0.32,-0.91 -0.77,-1.07 -0.12,-0.03 -0.23,-0.05 -0.35,-0.05l0 0zm13.4 4.63c-0.29,0 -0.57,0.12 -0.8,0.33 -0.43,0.45 -0.43,1.16 0,1.6 2.77,2.77 4.3,6.44 4.3,10.36 0,3.91 -1.53,7.59 -4.3,10.36 -0.45,0.45 -0.46,1.16 -0.01,1.6 0.22,0.22 0.51,0.34 0.8,0.34 0.3,0 0.59,-0.12 0.82,-0.34 3.19,-3.2 4.96,-7.45 4.96,-11.96 0,-4.51 -1.76,-8.76 -4.96,-11.96 -0.22,-0.21 -0.52,-0.33 -0.81,-0.33zm-4.78 4.79c-0.3,0 -0.58,0.11 -0.8,0.33 -0.45,0.43 -0.45,1.16 0,1.59 1.48,1.49 2.31,3.49 2.31,5.58 0,2.09 -0.84,4.1 -2.31,5.58 -0.45,0.44 -0.45,1.15 0,1.59 0.21,0.22 0.5,0.33 0.8,0.33 0.29,0 0.57,-0.11 0.8,-0.33 1.92,-1.92 2.97,-4.47 2.97,-7.17 0,-2.71 -1.05,-5.25 -2.97,-7.17 -0.22,-0.22 -0.51,-0.33 -0.8,-0.33z"/>
 </g>
</svg>
