<?xml version="1.0" encoding="UTF-8"?>
<!DOCTYPE svg PUBLIC "-//W3C//DTD SVG 1.1//EN" "http://www.w3.org/Graphics/SVG/1.1/DTD/svg11.dtd">
<!-- Creator: CorelDRAW -->
<svg xmlns="http://www.w3.org/2000/svg" xml:space="preserve" width="32.2356mm" height="32.2356mm" version="1.1" style="shape-rendering:geometricPrecision; text-rendering:geometricPrecision; image-rendering:optimizeQuality; fill-rule:evenodd; clip-rule:evenodd"
viewBox="0 0 60.61 60.61"
 xmlns:xlink="http://www.w3.org/1999/xlink"
 xmlns:xodm="http://www.corel.com/coreldraw/odm/2003">
 <defs>
  <style type="text/css">
   <![CDATA[
    .fil0 {fill:#000037;fill-rule:nonzero}
    .fil1 {fill:white;fill-rule:nonzero}
   ]]>
  </style>
 </defs>
 <g id="Capa_x0020_1">
  <metadata id="CorelCorpID_0Corel-Layer"/>
  <rect class="fil0" width="60.61" height="60.61" rx="6.58" ry="6.58"/>
  <path class="fil1" d="M55.52 46.13l0 4.64 -3.59 0 -8.07 -12.24 3.32 -5.08 8.34 12.68zm0 -28.78l-0.14 -9.51 -11.52 17.16 3.27 4.95 8.39 -12.6zm-25.4 38.17l-6.63 0 14.75 -22.04 -3.97 0 -2.53 0 -4.96 0 -4.21 13.98 -2.49 0 -4 -22.06 -4.57 12.06 -3.3 -0.14 -3.11 -8.07 0 -11.33 5.08 12.73 5.18 -17.99 2.65 0.02 3.79 24.35 2.61 -8.44 6.43 -0.01 6.55 -0.04 -15.45 -23.46 6.47 0 17.6 26.64 -15.89 23.79z"/>
 </g>
</svg>
