<?xml version="1.0" encoding="UTF-8"?>
<!DOCTYPE svg PUBLIC "-//W3C//DTD SVG 1.1//EN" "http://www.w3.org/Graphics/SVG/1.1/DTD/svg11.dtd">
<!-- Creator: CorelDRAW -->
<svg xmlns="http://www.w3.org/2000/svg" xml:space="preserve" width="32.2356mm" height="32.2356mm" version="1.1" style="shape-rendering:geometricPrecision; text-rendering:geometricPrecision; image-rendering:optimizeQuality; fill-rule:evenodd; clip-rule:evenodd"
viewBox="0 0 60.61 60.61"
 xmlns:xlink="http://www.w3.org/1999/xlink"
 xmlns:xodm="http://www.corel.com/coreldraw/odm/2003">
 <defs>
  <style type="text/css">
   <![CDATA[
    .fil1 {fill:white}
    .fil0 {fill:#000037;fill-rule:nonzero}
   ]]>
  </style>
 </defs>
 <g id="Capa_x0020_1">
  <metadata id="CorelCorpID_0Corel-Layer"/>
  <rect class="fil0" y="-0" width="60.61" height="60.61" rx="6.58" ry="6.58"/>
  <path class="fil1" d="M30.26 9.06c2.21,0 4.32,1.03 5.62,2.81 -1.3,1.78 -3.4,2.81 -5.62,2.81l-6.91 0c0.65,-3.29 3.56,-5.62 6.91,-5.62l0 0zm6.91 5.62c0.11,0.49 0.16,0.92 0.16,1.4l0 5.83c0,3.94 -3.19,7.07 -7.07,7.07 -3.89,0 -7.07,-3.13 -7.07,-7.07l0 -4.43 7.07 0c2.59,0 5.08,-0.97 6.91,-2.81l0 0zm-10.31 16.52c1.08,0.43 2.27,0.65 3.4,0.65 1.13,0 2.27,-0.22 3.4,-0.65l0 0 -3.4 5.13 -3.4 -5.13 0 0zm9.18 1.46l2.27 2.16 -4.05 6.1 -2.21 -2.21 4 -6.05 0 0zm-11.61 0l4 6.05 -2.21 2.21 -4 -6.1 2.21 -2.16 0 0zm-4.64 3.67l5.08 7.56c0.22,0.38 0.59,0.59 1.03,0.65 0.05,0 0.11,0 0.11,0 0.38,0 0.76,-0.16 1.03,-0.43l1.84 -1.84 0 9.34 -12.53 0 -2.27 -11.72c0,0 0,-0.05 0,-0.05 -0.27,-0.92 0.27,-1.84 1.13,-2.16l4.59 -1.35 0 0zm20.95 0l4.7 1.35c0.86,0.32 1.35,1.24 1.13,2.16 0,0 0,0 0,0.05l-2.43 11.72 -12.47 0 0 -9.34 1.84 1.84c0.27,0.27 0.59,0.43 0.97,0.43 0.05,0 0.11,0 0.16,0 0.43,-0.05 0.81,-0.27 1.03,-0.65l5.08 -7.56 0 0zm-10.48 -30.13c-0.86,0 -1.73,0.11 -2.59,0.38 -4.32,1.13 -7.29,5.08 -7.29,9.5l0 5.83c0,2.65 1.03,5.18 2.86,7.02l0 0.97 -3.67 3.56 -5.18 1.51 -0.05 0c-2.27,0.76 -3.62,3.13 -3.02,5.51l2.48 12.8c0.11,0.65 0.7,1.13 1.4,1.13 0,0 0.05,0 0.11,0 0,0 0.05,0 0.11,0l29.92 0c0.65,0 1.24,-0.49 1.35,-1.13l2.65 -12.8c0.54,-2.38 -0.76,-4.75 -3.02,-5.51l-0.05 0 -5.29 -1.51 -3.73 -3.56 0 -0.97c1.89,-1.84 2.92,-4.37 2.92,-7.02l0 -5.83c0,-1.67 -0.43,-3.35 -1.3,-4.86 0,-0.05 -0.05,-0.11 -0.11,-0.16 -1.78,-3.08 -5.08,-4.86 -8.48,-4.86l0 0zm8.48 39.74c-0.81,0 -1.4,0.65 -1.4,1.4 0,0.81 0.59,1.4 1.4,1.4l2.81 0c0.76,0 1.4,-0.59 1.4,-1.4 0,-0.76 -0.65,-1.4 -1.4,-1.4l-2.81 0z"/>
 </g>
</svg>
