<?xml version="1.0" encoding="UTF-8"?>
<!DOCTYPE svg PUBLIC "-//W3C//DTD SVG 1.1//EN" "http://www.w3.org/Graphics/SVG/1.1/DTD/svg11.dtd">
<!-- Creator: CorelDRAW -->
<svg xmlns="http://www.w3.org/2000/svg" xml:space="preserve" width="32.2356mm" height="32.2356mm" version="1.1" style="shape-rendering:geometricPrecision; text-rendering:geometricPrecision; image-rendering:optimizeQuality; fill-rule:evenodd; clip-rule:evenodd"
viewBox="0 0 60.61 60.61"
 xmlns:xlink="http://www.w3.org/1999/xlink"
 xmlns:xodm="http://www.corel.com/coreldraw/odm/2003">
 <defs>
  <style type="text/css">
   <![CDATA[
    .fil1 {fill:white}
    .fil0 {fill:red;fill-rule:nonzero}
   ]]>
  </style>
 </defs>
 <g id="Capa_x0020_1">
  <metadata id="CorelCorpID_0Corel-Layer"/>
  <rect class="fil0" width="60.61" height="60.61" rx="6.58" ry="6.58"/>
  <path class="fil1" d="M27.68 21.02c-1.7,0 -3.1,1.36 -3.1,3.1 0,1.7 1.39,3.1 3.1,3.1l16.56 0c1.71,0 3.1,-1.39 3.1,-3.1 0,-1.73 -1.39,-3.1 -3.1,-3.1l-16.56 0zm-11.36 0c-2.76,0 -4.15,3.32 -2.19,5.28 0.6,0.6 1.39,0.91 2.19,0.91 0.4,0 0.8,-0.09 1.19,-0.26 1.16,-0.45 1.9,-1.59 1.9,-2.84 0,-1.73 -1.39,-3.1 -3.1,-3.1zm11.31 -12.41c-1.7,0 -3.1,1.39 -3.1,3.1 0,1.7 1.39,3.1 3.1,3.1 0.03,0 0.06,0 0.06,0l16.56 0c0,0 0.03,0 0.06,0 1.71,0 3.1,-1.39 3.1,-3.1 0,-1.7 -1.39,-3.1 -3.1,-3.1 -0.03,0 -0.06,0 -0.06,0l-16.56 0c0,0 -0.03,0 -0.06,0l0 0zm-11.31 0c-2.76,0 -4.15,3.35 -2.19,5.28 0.6,0.6 1.39,0.91 2.19,0.91 0.4,0 0.8,-0.06 1.19,-0.23 1.16,-0.48 1.9,-1.62 1.9,-2.87 0,-1.7 -1.39,-3.1 -3.1,-3.1zm11.31 24.8c-1.7,0 -3.1,1.39 -3.1,3.1 0,1.73 1.39,3.1 3.12,3.1 0,0 0.03,0 0.03,0l16.56 0c0,0 0.03,0 0.03,0 1.7,0 3.12,-1.36 3.12,-3.1 0,-1.7 -1.39,-3.1 -3.1,-3.1 -0.03,0 -0.06,0 -0.06,0l-16.56 0c0,0 -0.03,0 -0.06,0l0 0zm-11.31 0c-2.76,0 -4.15,3.32 -2.19,5.28 0.6,0.6 1.39,0.91 2.19,0.91 0.43,0 0.82,-0.06 1.19,-0.23 1.16,-0.48 1.9,-1.62 1.9,-2.87 0,-1.7 -1.39,-3.1 -3.1,-3.1zm11.33 12.39c-1.73,0 -3.12,1.39 -3.12,3.12 0,1.7 1.39,3.1 3.12,3.1 0,0 0.03,0 0.03,0l16.56 0c0,0 0.03,0 0.03,0 1.7,0 3.12,-1.39 3.12,-3.1 0,-1.73 -1.42,-3.12 -3.12,-3.12 0,0 -0.03,0 -0.03,0l-16.56 0c0,0 -0.03,0 -0.03,0l0 0zm-11.33 0c-2.76,0 -4.15,3.35 -2.19,5.31 0.6,0.6 1.39,0.91 2.19,0.91 0.4,0 0.8,-0.08 1.19,-0.23 1.16,-0.48 1.9,-1.62 1.9,-2.87 0,-1.73 -1.39,-3.12 -3.1,-3.12z"/>
 </g>
</svg>
