<?xml version="1.0" encoding="UTF-8"?>
<!DOCTYPE svg PUBLIC "-//W3C//DTD SVG 1.1//EN" "http://www.w3.org/Graphics/SVG/1.1/DTD/svg11.dtd">
<!-- Creator: CorelDRAW -->
<svg xmlns="http://www.w3.org/2000/svg" xml:space="preserve" width="25.8306mm" height="25.8306mm" version="1.1" style="shape-rendering:geometricPrecision; text-rendering:geometricPrecision; image-rendering:optimizeQuality; fill-rule:evenodd; clip-rule:evenodd"
viewBox="0 0 35.98 35.98"
 xmlns:xlink="http://www.w3.org/1999/xlink"
 xmlns:xodm="http://www.corel.com/coreldraw/odm/2003">
 <defs>
  <style type="text/css">
   <![CDATA[
    .fil1 {fill:#000037}
    .fil0 {fill:white;fill-rule:nonzero}
   ]]>
  </style>
 </defs>
 <g id="Capa_x0020_1">
  <metadata id="CorelCorpID_0Corel-Layer"/>
  <rect class="fil0" x="-0" y="0" width="35.98" height="35.98" rx="3.9" ry="3.9"/>
  <path class="fil1" d="M27.73 10.75l-10.19 0 0 -1.25c0,-0.89 -0.72,-1.61 -1.61,-1.61l-8.58 0c-0.88,0 -1.61,0.72 -1.61,1.61l0 16.98c0,0.89 0.72,1.61 1.61,1.61l5.18 0 3.4 0 11.8 0c1.38,0 2.5,-1.13 2.5,-2.5l0 -12.33c0,-1.38 -1.13,-2.5 -2.5,-2.5zm-0.32 1.45l-11.06 0 0 -2.42c0,-0.19 -0.16,-0.35 -0.35,-0.35l-8.3 0c-0.19,0 -0.35,0.16 -0.35,0.35l0 16.43c0,0.19 0.16,0.35 0.35,0.35l19.71 0c0.66,0 1.21,-0.55 1.21,-1.21l0 -11.93c0,-0.66 -0.55,-1.21 -1.21,-1.21z"/>
 </g>
</svg>
