<?xml version="1.0" encoding="UTF-8"?>
<!DOCTYPE svg PUBLIC "-//W3C//DTD SVG 1.1//EN" "http://www.w3.org/Graphics/SVG/1.1/DTD/svg11.dtd">
<!-- Creator: CorelDRAW -->
<svg xmlns="http://www.w3.org/2000/svg" xml:space="preserve" width="217.423mm" height="22.8153mm" version="1.1" style="shape-rendering:geometricPrecision; text-rendering:geometricPrecision; image-rendering:optimizeQuality; fill-rule:evenodd; clip-rule:evenodd"
viewBox="0 0 2457.84 257.91"
 xmlns:xlink="http://www.w3.org/1999/xlink"
 xmlns:xodm="http://www.corel.com/coreldraw/odm/2003">
 <defs>
  <style type="text/css">
   <![CDATA[
    .fil0 {fill:white;fill-rule:nonzero}
   ]]>
  </style>
 </defs>
 <g id="Capa_x0020_1">
  <metadata id="CorelCorpID_0Corel-Layer"/>
  <g id="_1443380171152">
   <g>
    <g>
     <path class="fil0" d="M112.68 0l112.97 0c8.29,0 15.33,5.64 17.46,13.28l-55.7 82.95 15.8 23.91 40.56 -60.9 0 139.14 -40.32 -61.28 -16.05 24.54 39.03 59.17 17.34 0 0 4.85c0,9.96 -8.15,18.12 -18.12,18.12l-104.69 0 76.82 -114.99 -85.1 -128.78z"/>
     <path class="fil0" d="M18.12 0l63.28 0 74.7 113.43 -31.68 0.17 -31.1 0.03 -12.62 40.79 -18.3 -117.72 -12.79 -0.12 -25.05 86.96 -24.55 -61.56 0 -43.88c0,-9.97 8.15,-18.12 18.12,-18.12zm70.78 243.77l-70.78 0c-9.96,0 -18.12,-8.15 -18.12,-18.12l0 -108.88 15.02 39.01 15.98 0.68 22.1 -58.31 19.35 106.64 12.03 0 20.35 -67.59 23.97 0 12.25 0 19.18 0 -71.32 106.56z"/>
    </g>
    <g>
     <path class="fil0" d="M433.33 48.07l81.93 0c14.29,0 24.89,0.59 31.89,1.76 7.04,1.22 13.28,3.69 18.81,7.42 5.53,3.77 10.14,8.76 13.83,15 3.69,6.24 5.53,13.28 5.53,21.03 0,8.38 -2.26,16.13 -6.79,23.13 -4.53,7.04 -10.68,12.28 -18.44,15.79 10.93,3.23 19.31,8.67 25.22,16.38 5.87,7.71 8.8,16.76 8.8,27.19 0,8.21 -1.89,16.17 -5.7,23.92 -3.81,7.75 -9.01,13.95 -15.63,18.6 -6.58,4.61 -14.71,7.46 -24.38,8.55 -6.03,0.63 -20.66,1.05 -43.83,1.22l-41.4 0 9.95 -30.42 40.29 0c13.07,0 21.41,-0.38 24.93,-1.09 5.41,-1 9.8,-3.39 13.2,-7.21 3.39,-3.85 5.11,-8.92 5.11,-15.34 0,-5.45 -1.3,-10.01 -3.94,-13.78 -2.6,-3.77 -6.41,-6.54 -11.35,-8.25 -4.6,-1.6 -14.24,-2.47 -28.88,-2.58l-40.66 0.04 -33.41 108.48 -17.72 0 -30.03 -176.96 -37.53 100.79 -23.53 -1 -26.04 -102.9 -17.42 0 -0.39 -30.4 38.11 0 19.77 85.84 40.83 -130.15 18.84 0.17 32.97 175.44 18.58 -59.21 8.32 -0.01 0 -0.06 40.35 0c14.12,0 22.92,-0.21 26.35,-0.63 6.2,-0.71 11.1,-2.85 14.67,-6.41 3.56,-3.56 5.32,-8.21 5.32,-13.99 0,-5.57 -1.55,-10.06 -4.61,-13.53 -3.06,-3.48 -7.63,-5.57 -13.66,-6.29 -3.6,-0.42 -13.96,-0.63 -31,-0.63l-62.29 0 -4.98 -29.92z"/>
     <path class="fil0" d="M613.07 257.91l0 -224.19 -72.94 0 0 -30.42 182.33 0 0 30.42 -72.94 0 0 224.19 -36.45 0zm140.35 -138.46l93.21 0 -77.09 -116.15 42.44 0 90.06 134.79 -80.25 119.82 -43.66 0 72.68 -108.53 -41.46 0 -55.87 0c-16.55,0 -27.32,0.88 -32.26,2.6 -4.94,1.72 -8.76,4.48 -11.36,8.25 -2.64,3.77 -3.94,8.34 -3.94,13.78 0,6.41 1.72,11.48 5.11,15.34 3.39,3.81 7.79,6.2 13.2,7.21 3.52,0.71 11.86,1.09 24.93,1.09l50.24 0 -14.92 30.42 -26.48 0c-23.17,-0.17 -37.79,-0.59 -43.83,-1.22 -9.68,-1.09 -17.81,-3.94 -24.38,-8.55 -6.62,-4.65 -11.82,-10.85 -15.63,-18.6 -3.81,-7.75 -5.7,-15.71 -5.7,-23.92 0,-10.43 2.93,-19.48 8.8,-27.19 5.91,-7.71 14.29,-13.15 25.22,-16.38 -7.75,-3.52 -13.91,-8.76 -18.44,-15.79 -4.53,-7 -6.79,-14.75 -6.79,-23.13 0,-7.75 1.84,-14.79 5.53,-21.03 3.69,-6.24 8.3,-11.23 13.83,-15 5.53,-3.73 11.77,-6.2 18.81,-7.42 7,-1.17 17.6,-1.76 31.88,-1.76l37.16 0 19.9 29.92 -42.39 0c-17.04,0 -27.4,0.21 -31,0.63 -6.03,0.71 -10.6,2.81 -13.66,6.29 -3.06,3.48 -4.61,7.96 -4.61,13.53 0,5.78 1.76,10.43 5.32,13.99 3.56,3.56 8.46,5.7 14.66,6.41 2.95,0.36 9.87,0.57 20.71,0.62zm180.1 -95.89l-45.82 70.13 21.69 32.61 66.57 -102.74 -42.44 0zm-45.87 158.67l38.64 58.93 43.66 0 -60.22 -91.83 -22.08 32.91z"/>
    </g>
   </g>
   <path class="fil0" d="M1014.71 142.31l10.43 1.45c-1.15,7.17 -4.06,12.77 -8.77,16.84 -4.71,4.06 -10.51,6.08 -17.36,6.08 -8.59,0 -15.5,-2.81 -20.72,-8.43 -5.24,-5.62 -7.84,-13.66 -7.84,-24.13 0,-6.79 1.13,-12.71 3.37,-17.81 2.24,-5.07 5.66,-8.89 10.27,-11.42 4.59,-2.55 9.58,-3.82 15,-3.82 6.81,0 12.41,1.72 16.74,5.18 4.34,3.46 7.13,8.37 8.34,14.71l-10.31 1.58c-0.99,-4.23 -2.73,-7.4 -5.25,-9.54 -2.51,-2.12 -5.54,-3.19 -9.1,-3.19 -5.38,0 -9.74,1.92 -13.12,5.76 -3.35,3.86 -5.03,9.93 -5.03,18.25 0,8.45 1.62,14.57 4.85,18.39 3.25,3.82 7.48,5.74 12.67,5.74 4.2,0 7.7,-1.28 10.49,-3.84 2.81,-2.55 4.59,-6.49 5.34,-11.8zm15.52 -8.43c0,-11.62 3.23,-20.23 9.72,-25.83 5.4,-4.65 12.01,-6.97 19.79,-6.97 8.63,0 15.71,2.83 21.21,8.49 5.47,5.64 8.22,13.46 8.22,23.42 0,8.09 -1.21,14.44 -3.64,19.06 -2.42,4.63 -5.96,8.23 -10.61,10.79 -4.63,2.56 -9.7,3.84 -15.18,3.84 -8.81,0 -15.93,-2.81 -21.36,-8.45 -5.44,-5.64 -8.15,-13.76 -8.15,-24.36zm10.92 0.02c0,8.05 1.76,14.07 5.28,18.05 3.54,4 7.96,6 13.32,6 5.3,0 9.7,-2 13.24,-6.02 3.52,-4.02 5.28,-10.15 5.28,-18.37 0,-7.76 -1.78,-13.64 -5.32,-17.62 -3.54,-4 -7.94,-6.01 -13.2,-6.01 -5.36,0 -9.78,1.98 -13.32,5.97 -3.52,3.98 -5.28,9.98 -5.28,18.01zm60.54 31.45l0 -62.94 9.58 0 0 8.93c4.61,-6.85 11.28,-10.27 19.99,-10.27 3.8,0 7.28,0.69 10.45,2.04 3.17,1.35 5.55,3.15 7.13,5.35 1.58,2.2 2.69,4.83 3.32,7.87 0.38,1.98 0.59,5.43 0.59,10.37l0 38.65 -10.67 0 0 -38.24c0,-4.35 -0.4,-7.6 -1.23,-9.74 -0.83,-2.14 -2.31,-3.86 -4.41,-5.15 -2.1,-1.27 -4.59,-1.92 -7.42,-1.92 -4.53,0 -8.43,1.44 -11.72,4.33 -3.29,2.87 -4.93,8.35 -4.93,16.39l0 34.34 -10.67 0zm84.65 0l-23.75 -62.94 11.42 0 13.46 37.7c1.45,4.06 2.81,8.29 4.04,12.67 0.95,-3.32 2.26,-7.3 3.98,-11.97l13.99 -38.4 10.96 0 -23.83 62.94 -10.27 0zm86.37 -20.37l11.03 1.45c-1.72,6.41 -4.93,11.4 -9.62,14.94 -4.69,3.54 -10.67,5.32 -17.97,5.32 -9.18,0 -16.45,-2.83 -21.83,-8.49 -5.38,-5.64 -8.06,-13.58 -8.06,-23.79 0,-10.55 2.71,-18.76 8.15,-24.58 5.44,-5.84 12.49,-8.75 21.16,-8.75 8.39,0 15.24,2.85 20.56,8.57 5.32,5.72 7.98,13.76 7.98,24.13 0,0.63 -0.02,1.58 -0.06,2.83l-46.87 0c0.4,6.89 2.34,12.19 5.86,15.85 3.5,3.66 7.88,5.5 13.12,5.5 3.9,0 7.24,-1.03 9.99,-3.09 2.77,-2.06 4.95,-5.36 6.57,-9.88zm-34.93 -17.1l35.05 0c-0.46,-5.29 -1.82,-9.25 -4.02,-11.9 -3.38,-4.1 -7.78,-6.16 -13.18,-6.16 -4.89,0 -9,1.64 -12.33,4.91 -3.32,3.28 -5.15,7.66 -5.52,13.16zm59.33 37.48l0 -62.94 9.58 0 0 9.64c2.45,-4.47 4.71,-7.42 6.79,-8.83 2.08,-1.44 4.37,-2.14 6.85,-2.14 3.6,0 7.26,1.13 10.98,3.38l-3.8 9.85c-2.59,-1.46 -5.17,-2.19 -7.76,-2.19 -2.32,0 -4.41,0.71 -6.24,2.1 -1.84,1.39 -3.15,3.33 -3.94,5.82 -1.19,3.78 -1.78,7.92 -1.78,12.43l0 32.88 -10.67 0zm63.67 -9.52l1.46 9.42c-2.99,0.63 -5.68,0.95 -8.03,0.95 -3.86,0 -6.85,-0.6 -9,-1.84 -2.12,-1.23 -3.62,-2.83 -4.49,-4.83 -0.87,-2 -1.29,-6.2 -1.29,-12.61l0 -36.26 -7.88 0 0 -8.25 7.88 0 0 -15.57 10.67 -6.41 0 21.97 10.67 0 0 8.25 -10.67 0 0 36.87c0,3.05 0.18,5.01 0.57,5.88 0.36,0.87 0.97,1.56 1.82,2.08 0.85,0.5 2.06,0.77 3.64,0.77 1.17,0 2.73,-0.14 4.65,-0.42zm10.53 -65.18l0 -12.13 10.67 0 0 12.13 -10.67 0zm0 74.7l0 -62.94 10.67 0 0 62.94 -10.67 0zm67.57 0l0 -7.98c-3.98,6.2 -9.84,9.32 -17.59,9.32 -5.01,0 -9.62,-1.37 -13.8,-4.14 -4.2,-2.75 -7.46,-6.61 -9.79,-11.54 -2.3,-4.95 -3.46,-10.63 -3.46,-17.06 0,-6.27 1.05,-11.94 3.14,-17.06 2.1,-5.1 5.24,-9.02 9.42,-11.72 4.16,-2.73 8.85,-4.09 14.01,-4.09 3.8,0 7.18,0.81 10.13,2.41 2.95,1.6 5.36,3.7 7.22,6.27l0 -31.23 10.67 0 0 86.83 -9.94 0zm-33.71 -31.39c0,8.04 1.7,14.05 5.11,18.03 3.4,3.98 7.42,5.96 12.05,5.96 4.67,0 8.63,-1.9 11.9,-5.7 3.26,-3.8 4.89,-9.6 4.89,-17.4 0,-8.57 -1.66,-14.88 -4.99,-18.9 -3.32,-4.02 -7.42,-6.02 -12.29,-6.02 -4.75,0 -8.71,1.92 -11.9,5.78 -3.18,3.86 -4.77,9.94 -4.77,18.25zm56.53 -0.08c0,-11.62 3.24,-20.23 9.72,-25.83 5.4,-4.65 12.01,-6.97 19.79,-6.97 8.63,0 15.71,2.83 21.21,8.49 5.47,5.64 8.22,13.46 8.22,23.42 0,8.09 -1.21,14.44 -3.64,19.06 -2.42,4.63 -5.96,8.23 -10.61,10.79 -4.63,2.56 -9.7,3.84 -15.18,3.84 -8.81,0 -15.93,-2.81 -21.36,-8.45 -5.44,-5.64 -8.15,-13.76 -8.15,-24.36zm10.92 0.02c0,8.05 1.76,14.07 5.28,18.05 3.54,4 7.96,6 13.32,6 5.3,0 9.7,-2 13.24,-6.02 3.52,-4.02 5.28,-10.15 5.28,-18.37 0,-7.76 -1.78,-13.64 -5.32,-17.62 -3.54,-4 -7.94,-6.01 -13.2,-6.01 -5.36,0 -9.78,1.98 -13.32,5.97 -3.52,3.98 -5.28,9.98 -5.28,18.01zm60.42 31.45l0 -62.94 9.58 0 0 9.64c2.45,-4.47 4.71,-7.42 6.79,-8.83 2.08,-1.44 4.37,-2.14 6.85,-2.14 3.6,0 7.26,1.13 10.98,3.38l-3.8 9.85c-2.59,-1.46 -5.17,-2.19 -7.76,-2.19 -2.33,0 -4.41,0.71 -6.24,2.1 -1.84,1.39 -3.15,3.33 -3.94,5.82 -1.19,3.78 -1.78,7.92 -1.78,12.43l0 32.88 -10.67 0zm114.83 0l0 -7.98c-3.98,6.2 -9.85,9.32 -17.59,9.32 -5.01,0 -9.62,-1.37 -13.8,-4.14 -4.2,-2.75 -7.46,-6.61 -9.79,-11.54 -2.3,-4.95 -3.46,-10.63 -3.46,-17.06 0,-6.27 1.05,-11.94 3.13,-17.06 2.1,-5.1 5.24,-9.02 9.42,-11.72 4.16,-2.73 8.85,-4.09 14.01,-4.09 3.8,0 7.18,0.81 10.13,2.41 2.95,1.6 5.36,3.7 7.22,6.27l0 -31.23 10.67 0 0 86.83 -9.94 0zm-33.71 -31.39c0,8.04 1.7,14.05 5.11,18.03 3.4,3.98 7.42,5.96 12.05,5.96 4.67,0 8.63,-1.9 11.9,-5.7 3.26,-3.8 4.89,-9.6 4.89,-17.4 0,-8.57 -1.66,-14.88 -4.99,-18.9 -3.32,-4.02 -7.42,-6.02 -12.29,-6.02 -4.75,0 -8.71,1.92 -11.9,5.78 -3.18,3.86 -4.77,9.94 -4.77,18.25zm103.47 11.02l11.03 1.45c-1.72,6.41 -4.93,11.4 -9.62,14.94 -4.69,3.54 -10.67,5.32 -17.97,5.32 -9.18,0 -16.45,-2.83 -21.83,-8.49 -5.38,-5.64 -8.06,-13.58 -8.06,-23.79 0,-10.55 2.71,-18.76 8.15,-24.58 5.44,-5.84 12.49,-8.75 21.16,-8.75 8.39,0 15.24,2.85 20.56,8.57 5.32,5.72 7.98,13.76 7.98,24.13 0,0.63 -0.02,1.58 -0.06,2.83l-46.87 0c0.4,6.89 2.34,12.19 5.86,15.85 3.5,3.66 7.88,5.5 13.12,5.5 3.9,0 7.24,-1.03 9.99,-3.09 2.77,-2.06 4.95,-5.36 6.57,-9.88zm-34.93 -17.1l35.05 0c-0.46,-5.29 -1.82,-9.25 -4.02,-11.9 -3.38,-4.1 -7.78,-6.16 -13.18,-6.16 -4.89,0 -9,1.64 -12.33,4.91 -3.32,3.28 -5.15,7.66 -5.52,13.16zm134.26 29.59c-3.96,3.38 -7.78,5.74 -11.44,7.14 -3.66,1.4 -7.58,2.08 -11.78,2.08 -6.91,0 -12.23,-1.68 -15.95,-5.05 -3.72,-3.36 -5.58,-7.66 -5.58,-12.9 0,-3.07 0.71,-5.88 2.1,-8.43 1.41,-2.55 3.25,-4.56 5.51,-6.1 2.28,-1.54 4.83,-2.71 7.68,-3.5 2.1,-0.55 5.28,-1.07 9.5,-1.6 8.61,-1.01 14.98,-2.24 19.04,-3.66 0.04,-1.45 0.06,-2.38 0.06,-2.77 0,-4.33 -1.01,-7.38 -3.03,-9.15 -2.73,-2.41 -6.79,-3.6 -12.17,-3.6 -5.03,0 -8.75,0.89 -11.14,2.65 -2.41,1.76 -4.17,4.87 -5.32,9.36l-10.43 -1.46c0.95,-4.47 2.51,-8.08 4.69,-10.83 2.18,-2.75 5.34,-4.85 9.46,-6.35 4.1,-1.48 8.89,-2.22 14.31,-2.22 5.38,0 9.76,0.63 13.14,1.9 3.35,1.28 5.84,2.85 7.42,4.77 1.58,1.92 2.69,4.35 3.33,7.28 0.35,1.82 0.53,5.09 0.53,9.8l0 14.15c0,9.88 0.22,16.13 0.67,18.78 0.42,2.65 1.32,5.18 2.61,7.6l-11.16 0c-1.07,-2.24 -1.76,-4.87 -2.06,-7.88zm-0.85 -23.65c-3.88,1.58 -9.7,2.91 -17.46,4 -4.41,0.63 -7.52,1.33 -9.34,2.12 -1.82,0.79 -3.21,1.94 -4.2,3.43 -0.99,1.52 -1.5,3.19 -1.5,5.06 0,2.81 1.07,5.17 3.24,7.06 2.16,1.88 5.32,2.83 9.46,2.83 4.1,0 7.76,-0.89 10.98,-2.69 3.19,-1.78 5.56,-4.23 7.06,-7.32 1.15,-2.41 1.72,-5.94 1.72,-10.61l0.06 -3.88zm68.3 31.53l0 -9.36c-4.89,7.14 -11.52,10.69 -19.91,10.69 -3.7,0 -7.15,-0.71 -10.37,-2.12 -3.21,-1.43 -5.6,-3.21 -7.15,-5.36 -1.55,-2.16 -2.65,-4.79 -3.27,-7.9 -0.42,-2.1 -0.65,-5.41 -0.65,-9.94l0 -38.95 10.67 0 0 34.83c0,5.56 0.22,9.32 0.64,11.24 0.67,2.81 2.08,4.99 4.27,6.59 2.16,1.6 4.83,2.41 8.03,2.41 3.19,0 6.19,-0.81 8.97,-2.45 2.79,-1.64 4.77,-3.88 5.94,-6.69 1.15,-2.81 1.74,-6.92 1.74,-12.27l0 -33.65 10.67 0 0 62.94 -9.58 0zm66.96 0l0 -7.98c-3.98,6.2 -9.84,9.32 -17.59,9.32 -5.01,0 -9.62,-1.37 -13.8,-4.14 -4.2,-2.75 -7.46,-6.61 -9.79,-11.54 -2.3,-4.95 -3.46,-10.63 -3.46,-17.06 0,-6.27 1.05,-11.94 3.14,-17.06 2.1,-5.1 5.24,-9.02 9.42,-11.72 4.16,-2.73 8.85,-4.09 14.01,-4.09 3.8,0 7.18,0.81 10.13,2.41 2.95,1.6 5.36,3.7 7.22,6.27l0 -31.23 10.67 0 0 86.83 -9.94 0zm-33.71 -31.39c0,8.04 1.7,14.05 5.11,18.03 3.4,3.98 7.42,5.96 12.05,5.96 4.67,0 8.63,-1.9 11.9,-5.7 3.26,-3.8 4.89,-9.6 4.89,-17.4 0,-8.57 -1.66,-14.88 -4.99,-18.9 -3.32,-4.02 -7.42,-6.02 -12.29,-6.02 -4.75,0 -8.71,1.92 -11.9,5.78 -3.18,3.86 -4.77,9.94 -4.77,18.25zm60.54 -43.32l0 -12.13 10.67 0 0 12.13 -10.67 0zm0 74.7l0 -62.94 10.67 0 0 62.94 -10.67 0zm22.94 -31.47c0,-11.62 3.23,-20.23 9.72,-25.83 5.4,-4.65 12.01,-6.97 19.79,-6.97 8.63,0 15.71,2.83 21.21,8.49 5.47,5.64 8.22,13.46 8.22,23.42 0,8.09 -1.21,14.44 -3.64,19.06 -2.42,4.63 -5.96,8.23 -10.61,10.79 -4.63,2.56 -9.7,3.84 -15.18,3.84 -8.81,0 -15.93,-2.81 -21.36,-8.45 -5.44,-5.64 -8.15,-13.76 -8.15,-24.36zm10.92 0.02c0,8.05 1.76,14.07 5.28,18.05 3.54,4 7.96,6 13.32,6 5.3,0 9.7,-2 13.24,-6.02 3.52,-4.02 5.28,-10.15 5.28,-18.37 0,-7.76 -1.78,-13.64 -5.32,-17.62 -3.54,-4 -7.94,-6.01 -13.2,-6.01 -5.36,0 -9.78,1.98 -13.32,5.97 -3.52,3.98 -5.28,9.98 -5.28,18.01zm135.35 23.57c-3.96,3.38 -7.78,5.74 -11.44,7.14 -3.66,1.4 -7.58,2.08 -11.79,2.08 -6.91,0 -12.23,-1.68 -15.95,-5.05 -3.72,-3.36 -5.58,-7.66 -5.58,-12.9 0,-3.07 0.71,-5.88 2.1,-8.43 1.41,-2.55 3.25,-4.56 5.52,-6.1 2.28,-1.54 4.83,-2.71 7.68,-3.5 2.1,-0.55 5.28,-1.07 9.5,-1.6 8.61,-1.01 14.98,-2.24 19.04,-3.66 0.04,-1.45 0.06,-2.38 0.06,-2.77 0,-4.33 -1.01,-7.38 -3.03,-9.15 -2.73,-2.41 -6.79,-3.6 -12.16,-3.6 -5.03,0 -8.75,0.89 -11.14,2.65 -2.41,1.76 -4.17,4.87 -5.32,9.36l-10.43 -1.46c0.95,-4.47 2.51,-8.08 4.69,-10.83 2.18,-2.75 5.33,-4.85 9.46,-6.35 4.1,-1.48 8.89,-2.22 14.31,-2.22 5.38,0 9.76,0.63 13.14,1.9 3.35,1.28 5.84,2.85 7.42,4.77 1.58,1.92 2.69,4.35 3.33,7.28 0.35,1.82 0.53,5.09 0.53,9.8l0 14.15c0,9.88 0.22,16.13 0.67,18.78 0.42,2.65 1.31,5.18 2.61,7.6l-11.16 0c-1.07,-2.24 -1.76,-4.87 -2.06,-7.88zm-0.85 -23.65c-3.88,1.58 -9.7,2.91 -17.46,4 -4.41,0.63 -7.52,1.33 -9.34,2.12 -1.82,0.79 -3.21,1.94 -4.2,3.43 -0.99,1.52 -1.5,3.19 -1.5,5.06 0,2.81 1.07,5.17 3.23,7.06 2.16,1.88 5.32,2.83 9.46,2.83 4.1,0 7.76,-0.89 10.97,-2.69 3.19,-1.78 5.56,-4.23 7.06,-7.32 1.15,-2.41 1.72,-5.94 1.72,-10.61l0.06 -3.88zm84.05 22.01l1.46 9.42c-2.99,0.63 -5.68,0.95 -8.03,0.95 -3.86,0 -6.85,-0.6 -9,-1.84 -2.12,-1.23 -3.62,-2.83 -4.49,-4.83 -0.87,-2 -1.29,-6.2 -1.29,-12.61l0 -36.26 -7.88 0 0 -8.25 7.88 0 0 -15.57 10.67 -6.41 0 21.97 10.67 0 0 8.25 -10.67 0 0 36.87c0,3.05 0.18,5.01 0.57,5.88 0.36,0.87 0.97,1.56 1.82,2.08 0.85,0.5 2.06,0.77 3.64,0.77 1.17,0 2.73,-0.14 4.65,-0.42zm53.47 -10.85l11.03 1.45c-1.72,6.41 -4.93,11.4 -9.62,14.94 -4.69,3.54 -10.67,5.32 -17.97,5.32 -9.18,0 -16.45,-2.83 -21.83,-8.49 -5.38,-5.64 -8.06,-13.58 -8.06,-23.79 0,-10.55 2.71,-18.76 8.15,-24.58 5.44,-5.84 12.49,-8.75 21.16,-8.75 8.39,0 15.24,2.85 20.56,8.57 5.32,5.72 7.98,13.76 7.98,24.13 0,0.63 -0.02,1.58 -0.06,2.83l-46.87 0c0.4,6.89 2.34,12.19 5.86,15.85 3.5,3.66 7.88,5.5 13.12,5.5 3.9,0 7.24,-1.03 9.99,-3.09 2.77,-2.06 4.95,-5.36 6.57,-9.88zm-34.93 -17.1l35.05 0c-0.46,-5.29 -1.82,-9.25 -4.02,-11.9 -3.38,-4.1 -7.78,-6.16 -13.18,-6.16 -4.89,0 -9,1.64 -12.33,4.91 -3.32,3.28 -5.15,7.66 -5.52,13.16zm52.17 37.48l22.98 -32.6 -21.28 -30.34 13.12 0 9.94 14.86c1.84,2.79 3.3,5.05 4.33,6.83 1.8,-2.52 3.4,-4.81 4.83,-6.85l10.47 -14.84 13.04 0 -21.41 30.34 22.8 32.6 -12.98 0 -13.02 -19.4 -2.97 -4.67 -16.82 24.07 -13.04 0zm91.08 -9.52l1.45 9.42c-2.99,0.63 -5.68,0.95 -8.02,0.95 -3.86,0 -6.85,-0.6 -9,-1.84 -2.12,-1.23 -3.62,-2.83 -4.49,-4.83 -0.87,-2 -1.29,-6.2 -1.29,-12.61l0 -36.26 -7.88 0 0 -8.25 7.88 0 0 -15.57 10.67 -6.41 0 21.97 10.67 0 0 8.25 -10.67 0 0 36.87c0,3.05 0.18,5.01 0.57,5.88 0.36,0.87 0.97,1.56 1.82,2.08 0.85,0.5 2.06,0.77 3.64,0.77 1.17,0 2.73,-0.14 4.65,-0.42zm6.53 -21.95c0,-11.62 3.23,-20.23 9.72,-25.83 5.4,-4.65 12.01,-6.97 19.79,-6.97 8.63,0 15.71,2.83 21.21,8.49 5.47,5.64 8.22,13.46 8.22,23.42 0,8.09 -1.21,14.44 -3.64,19.06 -2.42,4.63 -5.96,8.23 -10.61,10.79 -4.63,2.56 -9.7,3.84 -15.18,3.84 -8.81,0 -15.93,-2.81 -21.36,-8.45 -5.44,-5.64 -8.15,-13.76 -8.15,-24.36zm10.92 0.02c0,8.05 1.76,14.07 5.28,18.05 3.54,4 7.96,6 13.32,6 5.3,0 9.7,-2 13.24,-6.02 3.52,-4.02 5.28,-10.15 5.28,-18.37 0,-7.76 -1.78,-13.64 -5.32,-17.62 -3.54,-4 -7.94,-6.01 -13.2,-6.01 -5.36,0 -9.78,1.98 -13.32,5.97 -3.52,3.98 -5.28,9.98 -5.28,18.01z"/>
  </g>
 </g>
</svg>
