<?xml version="1.0" encoding="UTF-8"?>
<!DOCTYPE svg PUBLIC "-//W3C//DTD SVG 1.1//EN" "http://www.w3.org/Graphics/SVG/1.1/DTD/svg11.dtd">
<!-- Creator: CorelDRAW -->
<svg xmlns="http://www.w3.org/2000/svg" xml:space="preserve" width="184.099mm" height="57.9179mm" version="1.1" style="shape-rendering:geometricPrecision; text-rendering:geometricPrecision; image-rendering:optimizeQuality; fill-rule:evenodd; clip-rule:evenodd"
viewBox="0 0 1948.92 613.13"
 xmlns:xlink="http://www.w3.org/1999/xlink"
 xmlns:xodm="http://www.corel.com/coreldraw/odm/2003">
 <defs>
  <style type="text/css">
   <![CDATA[
    .fil0 {fill:#000037;fill-rule:nonzero}
    .fil1 {fill:red;fill-rule:nonzero}
   ]]>
  </style>
 </defs>
 <g id="Capa_x0020_1">
  <metadata id="CorelCorpID_0Corel-Layer"/>
  <g id="_1407869186720">
   <g>
    <g>
     <path class="fil0" d="M223.67 0l224.26 0c16.46,0 30.42,11.2 34.65,26.36l-110.56 164.67 31.36 47.46 80.51 -120.9 0 276.2 -80.05 -121.65 -31.86 48.71 77.48 117.45 34.43 0 0 9.62c0,19.78 -16.18,35.97 -35.97,35.97l-207.83 0 152.5 -228.26 -168.94 -255.64z"/>
     <path class="fil1" d="M35.97 0l125.61 0 148.28 225.17 -62.88 0.34 -61.74 0.06 -25.05 80.96 -36.33 -233.68 -25.39 -0.23 -49.73 172.63 -48.74 -122.19 0 -87.1c0,-19.78 16.18,-35.97 35.97,-35.97zm140.51 483.9l-140.51 0c-19.78,0 -35.97,-16.18 -35.97,-35.97l0 -216.13 29.82 77.44 31.71 1.34 43.88 -115.74 38.41 211.69 23.88 0 40.39 -134.17 47.59 0 24.31 0 38.07 0 -141.58 211.53z"/>
    </g>
    <g>
     <path class="fil1" d="M860.19 95.43l162.64 0c28.36,0 49.4,1.16 63.29,3.49 13.97,2.41 26.37,7.32 37.34,14.72 10.98,7.49 20.13,17.38 27.45,29.78 7.32,12.39 10.98,26.37 10.98,41.75 0,16.64 -4.49,32.02 -13.47,45.91 -8.98,13.97 -21.21,24.37 -36.6,31.36 21.71,6.4 38.34,17.22 50.07,32.52 11.64,15.3 17.47,33.27 17.47,53.98 0,16.3 -3.74,32.1 -11.31,47.49 -7.57,15.39 -17.88,27.7 -31.02,36.93 -13.06,9.15 -29.19,14.81 -48.41,16.97 -11.98,1.25 -41,2.08 -87,2.41l-82.18 0 19.75 -60.38 79.98 0c25.95,0 42.5,-0.75 49.49,-2.16 10.73,-2 19.46,-6.74 26.2,-14.31 6.74,-7.65 10.15,-17.72 10.15,-30.44 0,-10.81 -2.58,-19.88 -7.82,-27.36 -5.16,-7.49 -12.73,-12.98 -22.54,-16.39 -9.13,-3.17 -28.27,-4.9 -57.33,-5.13l-80.72 0.08 -66.33 215.34 -35.17 0 -59.61 -351.28 -74.49 200.09 -46.7 -1.98 -51.68 -204.27 -34.57 0 -0.78 -60.36 75.66 0 39.24 170.4 81.05 -258.36 37.39 0.33 65.45 348.27 36.89 -117.53 16.51 -0.02 0 -0.12 80.1 0c28.03,0 45.49,-0.42 52.32,-1.25 12.31,-1.41 22.04,-5.66 29.11,-12.73 7.07,-7.07 10.56,-16.3 10.56,-27.78 0,-11.06 -3.08,-19.96 -9.15,-26.86 -6.07,-6.9 -15.14,-11.06 -27.11,-12.48 -7.15,-0.83 -27.72,-1.25 -61.55,-1.25l-123.65 0 -9.87 -59.38z"/>
     <path class="fil0" d="M1216.99 511.98l0 -445.05 -144.79 0 0 -60.38 361.95 0 0 60.38 -144.79 0 0 445.05 -72.36 0zm278.61 -274.86l185.03 0 -153.02 -230.57 84.25 0 178.78 267.57 -159.31 237.86 -86.67 0 144.28 -215.45 -82.3 0 -110.91 0c-32.85,0 -54.23,1.75 -64.04,5.16 -9.81,3.41 -17.38,8.9 -22.54,16.39 -5.24,7.49 -7.82,16.55 -7.82,27.36 0,12.73 3.41,22.79 10.15,30.44 6.74,7.57 15.47,12.31 26.2,14.31 6.99,1.41 23.54,2.16 49.49,2.16l99.73 0 -29.62 60.38 -52.56 0c-45.99,-0.33 -75.02,-1.16 -87,-2.41 -19.21,-2.16 -35.35,-7.82 -48.41,-16.97 -13.14,-9.23 -23.45,-21.54 -31.02,-36.93 -7.57,-15.39 -11.31,-31.19 -11.31,-47.49 0,-20.71 5.82,-38.67 17.47,-53.98 11.73,-15.3 28.36,-26.12 50.07,-32.52 -15.39,-6.99 -27.61,-17.38 -36.6,-31.36 -8.98,-13.89 -13.47,-29.28 -13.47,-45.91 0,-15.39 3.66,-29.36 10.98,-41.75 7.32,-12.39 16.47,-22.29 27.45,-29.78 10.98,-7.4 23.37,-12.31 37.35,-14.72 13.89,-2.33 34.93,-3.49 63.29,-3.49l73.77 0 39.5 59.38 -84.16 0c-33.82,0 -54.39,0.42 -61.55,1.25 -11.98,1.41 -21.04,5.57 -27.11,12.48 -6.07,6.9 -9.15,15.8 -9.15,26.86 0,11.48 3.49,20.71 10.56,27.78 7.07,7.07 16.8,11.31 29.11,12.73 5.86,0.71 19.58,1.12 41.12,1.22zm357.51 -190.35l-90.95 139.22 43.05 64.73 132.15 -203.95 -84.25 0zm-91.06 314.98l76.71 116.97 86.67 0 -119.54 -182.3 -43.83 65.32z"/>
    </g>
   </g>
   <path class="fil0" d="M864.22 594.81l7.84 1.09c-0.87,5.39 -3.05,9.6 -6.59,12.65 -3.54,3.05 -7.9,4.57 -13.05,4.57 -6.46,0 -11.65,-2.11 -15.57,-6.34 -3.93,-4.22 -5.89,-10.27 -5.89,-18.14 0,-5.11 0.85,-9.56 2.54,-13.39 1.69,-3.81 4.25,-6.68 7.72,-8.58 3.45,-1.91 7.2,-2.87 11.27,-2.87 5.12,0 9.33,1.29 12.58,3.89 3.26,2.6 5.36,6.29 6.27,11.06l-7.75 1.18c-0.74,-3.18 -2.05,-5.56 -3.95,-7.17 -1.88,-1.6 -4.16,-2.4 -6.84,-2.4 -4.04,0 -7.32,1.44 -9.86,4.33 -2.52,2.9 -3.78,7.46 -3.78,13.72 0,6.35 1.22,10.95 3.65,13.83 2.45,2.87 5.62,4.31 9.53,4.31 3.16,0 5.79,-0.96 7.88,-2.88 2.11,-1.92 3.45,-4.88 4.01,-8.87zm11.67 -6.34c0,-8.74 2.43,-15.21 7.31,-19.42 4.06,-3.49 9.02,-5.24 14.87,-5.24 6.49,0 11.8,2.13 15.94,6.38 4.11,4.24 6.18,10.12 6.18,17.61 0,6.08 -0.91,10.85 -2.73,14.33 -1.82,3.48 -4.48,6.18 -7.98,8.11 -3.48,1.93 -7.29,2.89 -11.41,2.89 -6.62,0 -11.97,-2.11 -16.06,-6.35 -4.09,-4.24 -6.12,-10.35 -6.12,-18.31zm8.2 0.01c0,6.05 1.32,10.57 3.97,13.57 2.66,3.01 5.98,4.51 10.01,4.51 3.98,0 7.29,-1.5 9.95,-4.53 2.65,-3.02 3.97,-7.63 3.97,-13.81 0,-5.83 -1.34,-10.25 -4,-13.25 -2.66,-3.01 -5.97,-4.51 -9.92,-4.51 -4.03,0 -7.35,1.49 -10.01,4.48 -2.64,2.99 -3.97,7.5 -3.97,13.54zm45.5 23.64l0 -47.31 7.2 0 0 6.72c3.46,-5.15 8.48,-7.72 15.03,-7.72 2.86,0 5.47,0.52 7.86,1.54 2.38,1.02 4.18,2.37 5.36,4.02 1.19,1.66 2.02,3.63 2.49,5.91 0.29,1.49 0.44,4.08 0.44,7.79l0 29.05 -8.02 0 0 -28.74c0,-3.27 -0.3,-5.71 -0.92,-7.32 -0.62,-1.61 -1.73,-2.9 -3.31,-3.87 -1.58,-0.95 -3.45,-1.44 -5.58,-1.44 -3.4,0 -6.34,1.08 -8.81,3.25 -2.48,2.16 -3.71,6.28 -3.71,12.32l0 25.81 -8.02 0zm63.62 0l-17.85 -47.31 8.58 0 10.12 28.33c1.09,3.05 2.11,6.23 3.04,9.53 0.71,-2.49 1.7,-5.49 2.99,-8.99l10.51 -28.87 8.24 0 -17.91 47.31 -7.72 0zm64.92 -15.31l8.29 1.09c-1.29,4.82 -3.71,8.57 -7.23,11.23 -3.53,2.66 -8.02,4 -13.51,4 -6.9,0 -12.37,-2.13 -16.41,-6.38 -4.04,-4.24 -6.06,-10.21 -6.06,-17.88 0,-7.93 2.04,-14.1 6.12,-18.47 4.09,-4.39 9.39,-6.58 15.91,-6.58 6.31,0 11.46,2.14 15.45,6.44 4,4.3 6,10.34 6,18.14 0,0.47 -0.02,1.19 -0.05,2.13l-35.23 0c0.3,5.18 1.76,9.16 4.41,11.91 2.63,2.75 5.92,4.13 9.86,4.13 2.93,0 5.44,-0.77 7.51,-2.32 2.08,-1.55 3.72,-4.03 4.94,-7.43zm-26.25 -12.85l26.34 0c-0.35,-3.98 -1.36,-6.96 -3.02,-8.95 -2.54,-3.08 -5.85,-4.63 -9.9,-4.63 -3.68,0 -6.76,1.23 -9.27,3.69 -2.49,2.46 -3.87,5.76 -4.15,9.89zm44.59 28.17l0 -47.31 7.2 0 0 7.25c1.84,-3.36 3.54,-5.58 5.11,-6.64 1.56,-1.08 3.28,-1.61 5.15,-1.61 2.71,0 5.46,0.85 8.25,2.54l-2.86 7.4c-1.94,-1.09 -3.89,-1.64 -5.84,-1.64 -1.75,0 -3.31,0.53 -4.69,1.58 -1.38,1.05 -2.37,2.51 -2.96,4.38 -0.89,2.84 -1.34,5.95 -1.34,9.34l0 24.72 -8.02 0zm47.86 -7.16l1.09 7.08c-2.25,0.47 -4.27,0.71 -6.03,0.71 -2.9,0 -5.15,-0.45 -6.76,-1.38 -1.59,-0.92 -2.72,-2.13 -3.37,-3.63 -0.65,-1.5 -0.97,-4.66 -0.97,-9.48l0 -27.25 -5.92 0 0 -6.2 5.92 0 0 -11.7 8.02 -4.82 0 16.52 8.02 0 0 6.2 -8.02 0 0 27.71c0,2.29 0.14,3.77 0.43,4.42 0.27,0.65 0.73,1.17 1.37,1.56 0.64,0.38 1.55,0.58 2.73,0.58 0.88,0 2.05,-0.1 3.49,-0.32zm7.92 -49l0 -9.12 8.02 0 0 9.12 -8.02 0zm0 56.15l0 -47.31 8.02 0 0 47.31 -8.02 0zm50.79 0l0 -6c-2.99,4.66 -7.4,7 -13.22,7 -3.77,0 -7.23,-1.03 -10.38,-3.12 -3.16,-2.07 -5.61,-4.97 -7.36,-8.67 -1.73,-3.72 -2.6,-7.99 -2.6,-12.82 0,-4.71 0.79,-8.98 2.36,-12.82 1.58,-3.83 3.93,-6.78 7.08,-8.81 3.13,-2.05 6.65,-3.07 10.53,-3.07 2.86,0 5.39,0.61 7.61,1.81 2.22,1.2 4.03,2.78 5.43,4.71l0 -23.47 8.02 0 0 65.27 -7.47 0zm-25.34 -23.59c0,6.04 1.28,10.56 3.84,13.55 2.55,2.99 5.57,4.48 9.06,4.48 3.51,0 6.49,-1.43 8.95,-4.28 2.45,-2.86 3.68,-7.22 3.68,-13.08 0,-6.44 -1.25,-11.18 -3.75,-14.21 -2.49,-3.02 -5.58,-4.53 -9.24,-4.53 -3.57,0 -6.55,1.45 -8.95,4.35 -2.39,2.9 -3.59,7.47 -3.59,13.72zm42.49 -0.06c0,-8.74 2.43,-15.21 7.31,-19.42 4.06,-3.49 9.02,-5.24 14.87,-5.24 6.49,0 11.8,2.13 15.94,6.38 4.11,4.24 6.18,10.12 6.18,17.61 0,6.08 -0.91,10.85 -2.73,14.33 -1.82,3.48 -4.48,6.18 -7.97,8.11 -3.48,1.93 -7.29,2.89 -11.41,2.89 -6.62,0 -11.97,-2.11 -16.06,-6.35 -4.09,-4.24 -6.12,-10.35 -6.12,-18.31zm8.21 0.01c0,6.05 1.32,10.57 3.97,13.57 2.66,3.01 5.98,4.51 10.01,4.51 3.98,0 7.29,-1.5 9.95,-4.53 2.64,-3.02 3.97,-7.63 3.97,-13.81 0,-5.83 -1.34,-10.25 -4,-13.25 -2.66,-3.01 -5.97,-4.51 -9.92,-4.51 -4.03,0 -7.35,1.49 -10.01,4.48 -2.64,2.99 -3.97,7.5 -3.97,13.54zm45.41 23.64l0 -47.31 7.2 0 0 7.25c1.84,-3.36 3.54,-5.58 5.11,-6.64 1.56,-1.08 3.28,-1.61 5.15,-1.61 2.71,0 5.46,0.85 8.25,2.54l-2.86 7.4c-1.94,-1.09 -3.89,-1.64 -5.84,-1.64 -1.75,0 -3.31,0.53 -4.69,1.58 -1.38,1.05 -2.37,2.51 -2.96,4.38 -0.89,2.84 -1.34,5.95 -1.34,9.34l0 24.72 -8.02 0zm86.31 0l0 -6c-2.99,4.66 -7.4,7 -13.22,7 -3.77,0 -7.23,-1.03 -10.38,-3.12 -3.16,-2.07 -5.61,-4.97 -7.36,-8.67 -1.73,-3.72 -2.6,-7.99 -2.6,-12.82 0,-4.71 0.79,-8.98 2.36,-12.82 1.58,-3.83 3.93,-6.78 7.08,-8.81 3.13,-2.05 6.65,-3.07 10.53,-3.07 2.86,0 5.39,0.61 7.61,1.81 2.22,1.2 4.03,2.78 5.42,4.71l0 -23.47 8.02 0 0 65.27 -7.47 0zm-25.34 -23.59c0,6.04 1.28,10.56 3.84,13.55 2.55,2.99 5.57,4.48 9.06,4.48 3.51,0 6.49,-1.43 8.95,-4.28 2.45,-2.86 3.68,-7.22 3.68,-13.08 0,-6.44 -1.25,-11.18 -3.75,-14.21 -2.49,-3.02 -5.58,-4.53 -9.24,-4.53 -3.57,0 -6.55,1.45 -8.95,4.35 -2.39,2.9 -3.59,7.47 -3.59,13.72zm77.77 8.28l8.29 1.09c-1.29,4.82 -3.71,8.57 -7.23,11.23 -3.53,2.66 -8.02,4 -13.51,4 -6.9,0 -12.37,-2.13 -16.41,-6.38 -4.04,-4.24 -6.06,-10.21 -6.06,-17.88 0,-7.93 2.04,-14.1 6.12,-18.47 4.09,-4.39 9.39,-6.58 15.91,-6.58 6.31,0 11.46,2.14 15.45,6.44 4,4.3 6,10.34 6,18.14 0,0.47 -0.02,1.19 -0.05,2.13l-35.23 0c0.3,5.18 1.76,9.16 4.41,11.91 2.63,2.75 5.92,4.13 9.86,4.13 2.93,0 5.44,-0.77 7.51,-2.32 2.08,-1.55 3.72,-4.03 4.94,-7.43zm-26.25 -12.85l26.34 0c-0.35,-3.98 -1.36,-6.96 -3.02,-8.95 -2.54,-3.08 -5.85,-4.63 -9.9,-4.63 -3.68,0 -6.76,1.23 -9.27,3.69 -2.49,2.46 -3.87,5.76 -4.15,9.89zm100.91 22.24c-2.98,2.54 -5.85,4.31 -8.6,5.36 -2.75,1.05 -5.7,1.56 -8.86,1.56 -5.19,0 -9.19,-1.26 -11.99,-3.8 -2.79,-2.52 -4.19,-5.76 -4.19,-9.69 0,-2.31 0.53,-4.42 1.58,-6.34 1.06,-1.91 2.45,-3.43 4.15,-4.59 1.72,-1.15 3.63,-2.04 5.77,-2.63 1.58,-0.41 3.97,-0.8 7.14,-1.2 6.47,-0.76 11.26,-1.69 14.31,-2.75 0.03,-1.09 0.04,-1.79 0.04,-2.08 0,-3.25 -0.76,-5.54 -2.28,-6.88 -2.05,-1.81 -5.1,-2.7 -9.14,-2.7 -3.78,0 -6.58,0.67 -8.37,1.99 -1.81,1.32 -3.13,3.66 -4,7.03l-7.84 -1.09c0.71,-3.36 1.88,-6.08 3.53,-8.14 1.64,-2.07 4.01,-3.65 7.11,-4.77 3.08,-1.11 6.68,-1.67 10.76,-1.67 4.04,0 7.34,0.47 9.87,1.43 2.52,0.96 4.39,2.14 5.57,3.59 1.18,1.44 2.02,3.27 2.51,5.47 0.26,1.37 0.4,3.83 0.4,7.37l0 10.63c0,7.43 0.17,12.12 0.5,14.11 0.32,1.99 0.99,3.89 1.96,5.71l-8.39 0c-0.8,-1.69 -1.32,-3.66 -1.55,-5.93zm-0.64 -17.78c-2.92,1.19 -7.29,2.19 -13.13,3.01 -3.31,0.47 -5.65,1 -7.02,1.6 -1.37,0.59 -2.41,1.46 -3.16,2.58 -0.75,1.14 -1.12,2.4 -1.12,3.8 0,2.11 0.81,3.89 2.43,5.3 1.62,1.41 4,2.13 7.11,2.13 3.08,0 5.84,-0.67 8.25,-2.02 2.4,-1.34 4.18,-3.18 5.3,-5.5 0.86,-1.81 1.29,-4.47 1.29,-7.98l0.04 -2.92zm51.34 23.7l0 -7.03c-3.68,5.36 -8.66,8.04 -14.96,8.04 -2.78,0 -5.38,-0.53 -7.79,-1.6 -2.41,-1.08 -4.21,-2.41 -5.38,-4.03 -1.17,-1.63 -1.99,-3.6 -2.46,-5.94 -0.32,-1.58 -0.48,-4.07 -0.48,-7.47l0 -29.28 8.02 0 0 26.18c0,4.18 0.17,7 0.48,8.45 0.5,2.11 1.56,3.75 3.21,4.95 1.62,1.2 3.63,1.81 6.03,1.81 2.4,0 4.65,-0.61 6.75,-1.84 2.1,-1.23 3.58,-2.92 4.47,-5.03 0.86,-2.11 1.31,-5.2 1.31,-9.22l0 -25.29 8.02 0 0 47.31 -7.2 0zm50.33 0l0 -6c-2.99,4.66 -7.4,7 -13.22,7 -3.77,0 -7.23,-1.03 -10.38,-3.12 -3.16,-2.07 -5.61,-4.97 -7.36,-8.67 -1.73,-3.72 -2.6,-7.99 -2.6,-12.82 0,-4.71 0.79,-8.98 2.36,-12.82 1.58,-3.83 3.94,-6.78 7.08,-8.81 3.13,-2.05 6.65,-3.07 10.53,-3.07 2.86,0 5.39,0.61 7.61,1.81 2.22,1.2 4.03,2.78 5.42,4.71l0 -23.47 8.02 0 0 65.27 -7.47 0zm-25.34 -23.59c0,6.04 1.28,10.56 3.84,13.55 2.55,2.99 5.57,4.48 9.06,4.48 3.51,0 6.49,-1.43 8.95,-4.28 2.45,-2.86 3.68,-7.22 3.68,-13.08 0,-6.44 -1.25,-11.18 -3.75,-14.21 -2.49,-3.02 -5.58,-4.53 -9.24,-4.53 -3.57,0 -6.55,1.45 -8.95,4.35 -2.39,2.9 -3.59,7.47 -3.59,13.72zm45.5 -32.56l0 -9.12 8.02 0 0 9.12 -8.02 0zm0 56.15l0 -47.31 8.02 0 0 47.31 -8.02 0zm17.24 -23.65c0,-8.74 2.43,-15.21 7.31,-19.42 4.06,-3.49 9.02,-5.24 14.87,-5.24 6.49,0 11.8,2.13 15.94,6.38 4.11,4.24 6.18,10.12 6.18,17.61 0,6.08 -0.91,10.85 -2.73,14.33 -1.82,3.48 -4.48,6.18 -7.97,8.11 -3.48,1.93 -7.29,2.89 -11.41,2.89 -6.62,0 -11.97,-2.11 -16.06,-6.35 -4.09,-4.24 -6.12,-10.35 -6.12,-18.31zm8.21 0.01c0,6.05 1.32,10.57 3.97,13.57 2.66,3.01 5.98,4.51 10.01,4.51 3.98,0 7.29,-1.5 9.95,-4.53 2.64,-3.02 3.97,-7.63 3.97,-13.81 0,-5.83 -1.34,-10.25 -4,-13.25 -2.66,-3.01 -5.97,-4.51 -9.92,-4.51 -4.03,0 -7.35,1.49 -10.01,4.48 -2.64,2.99 -3.97,7.5 -3.97,13.54zm101.73 17.71c-2.98,2.54 -5.85,4.31 -8.6,5.36 -2.75,1.05 -5.7,1.56 -8.86,1.56 -5.19,0 -9.19,-1.26 -11.99,-3.8 -2.79,-2.52 -4.19,-5.76 -4.19,-9.69 0,-2.31 0.53,-4.42 1.58,-6.34 1.06,-1.91 2.44,-3.43 4.14,-4.59 1.72,-1.15 3.63,-2.04 5.77,-2.63 1.58,-0.41 3.97,-0.8 7.14,-1.2 6.47,-0.76 11.26,-1.69 14.31,-2.75 0.03,-1.09 0.04,-1.79 0.04,-2.08 0,-3.25 -0.76,-5.54 -2.28,-6.88 -2.05,-1.81 -5.1,-2.7 -9.14,-2.7 -3.78,0 -6.58,0.67 -8.37,1.99 -1.81,1.32 -3.13,3.66 -4,7.03l-7.84 -1.09c0.71,-3.36 1.88,-6.08 3.53,-8.14 1.64,-2.07 4.01,-3.65 7.11,-4.77 3.08,-1.11 6.68,-1.67 10.76,-1.67 4.04,0 7.34,0.47 9.87,1.43 2.52,0.96 4.39,2.14 5.57,3.59 1.19,1.44 2.02,3.27 2.51,5.47 0.26,1.37 0.4,3.83 0.4,7.37l0 10.63c0,7.43 0.17,12.12 0.5,14.11 0.32,1.99 0.99,3.89 1.96,5.71l-8.39 0c-0.8,-1.69 -1.32,-3.66 -1.55,-5.93zm-0.64 -17.78c-2.92,1.19 -7.29,2.19 -13.13,3.01 -3.31,0.47 -5.65,1 -7.02,1.6 -1.37,0.59 -2.41,1.46 -3.16,2.58 -0.74,1.14 -1.12,2.4 -1.12,3.8 0,2.11 0.81,3.89 2.43,5.3 1.62,1.41 4,2.13 7.11,2.13 3.08,0 5.84,-0.67 8.25,-2.02 2.4,-1.34 4.18,-3.18 5.3,-5.5 0.86,-1.81 1.29,-4.47 1.29,-7.98l0.04 -2.92zm63.17 16.55l1.09 7.08c-2.25,0.47 -4.27,0.71 -6.03,0.71 -2.9,0 -5.15,-0.45 -6.76,-1.38 -1.6,-0.92 -2.72,-2.13 -3.37,-3.63 -0.65,-1.5 -0.97,-4.66 -0.97,-9.48l0 -27.25 -5.92 0 0 -6.2 5.92 0 0 -11.7 8.02 -4.82 0 16.52 8.02 0 0 6.2 -8.02 0 0 27.71c0,2.29 0.14,3.77 0.43,4.42 0.27,0.65 0.73,1.17 1.37,1.56 0.64,0.38 1.55,0.58 2.73,0.58 0.88,0 2.05,-0.1 3.49,-0.32zm40.19 -8.16l8.29 1.09c-1.29,4.82 -3.71,8.57 -7.23,11.23 -3.53,2.66 -8.02,4 -13.51,4 -6.9,0 -12.37,-2.13 -16.41,-6.38 -4.04,-4.24 -6.06,-10.21 -6.06,-17.88 0,-7.93 2.04,-14.1 6.12,-18.47 4.09,-4.39 9.39,-6.58 15.91,-6.58 6.31,0 11.46,2.14 15.45,6.44 4,4.3 6,10.34 6,18.14 0,0.47 -0.02,1.19 -0.05,2.13l-35.23 0c0.3,5.18 1.76,9.16 4.41,11.91 2.63,2.75 5.92,4.13 9.86,4.13 2.93,0 5.44,-0.77 7.51,-2.32 2.08,-1.55 3.72,-4.03 4.94,-7.43zm-26.25 -12.85l26.34 0c-0.35,-3.98 -1.36,-6.96 -3.02,-8.95 -2.54,-3.08 -5.85,-4.63 -9.9,-4.63 -3.68,0 -6.76,1.23 -9.27,3.69 -2.49,2.46 -3.87,5.76 -4.15,9.89zm39.21 28.17l17.27 -24.5 -16 -22.8 9.86 0 7.47 11.17c1.38,2.1 2.48,3.8 3.25,5.13 1.35,-1.9 2.55,-3.61 3.63,-5.15l7.87 -11.15 9.8 0 -16.09 22.8 17.14 24.5 -9.75 0 -9.79 -14.59 -2.23 -3.51 -12.64 18.09 -9.8 0zm68.46 -7.16l1.09 7.08c-2.25,0.47 -4.27,0.71 -6.03,0.71 -2.9,0 -5.15,-0.45 -6.76,-1.38 -1.59,-0.92 -2.72,-2.13 -3.37,-3.63 -0.65,-1.5 -0.97,-4.66 -0.97,-9.48l0 -27.25 -5.92 0 0 -6.2 5.92 0 0 -11.7 8.02 -4.82 0 16.52 8.02 0 0 6.2 -8.02 0 0 27.71c0,2.29 0.14,3.77 0.43,4.42 0.27,0.65 0.73,1.17 1.37,1.56 0.64,0.38 1.55,0.58 2.73,0.58 0.88,0 2.05,-0.1 3.49,-0.32zm4.91 -16.5c0,-8.74 2.43,-15.21 7.31,-19.42 4.06,-3.49 9.02,-5.24 14.87,-5.24 6.49,0 11.8,2.13 15.94,6.38 4.11,4.24 6.18,10.12 6.18,17.61 0,6.08 -0.91,10.85 -2.73,14.33 -1.82,3.48 -4.48,6.18 -7.97,8.11 -3.48,1.93 -7.29,2.89 -11.41,2.89 -6.62,0 -11.97,-2.11 -16.06,-6.35 -4.09,-4.24 -6.12,-10.35 -6.12,-18.31zm8.21 0.01c0,6.05 1.32,10.57 3.97,13.57 2.66,3.01 5.98,4.51 10.01,4.51 3.98,0 7.29,-1.5 9.95,-4.53 2.64,-3.02 3.97,-7.63 3.97,-13.81 0,-5.83 -1.34,-10.25 -4,-13.25 -2.66,-3.01 -5.97,-4.51 -9.92,-4.51 -4.03,0 -7.35,1.49 -10.01,4.48 -2.64,2.99 -3.97,7.5 -3.97,13.54z"/>
  </g>
 </g>
</svg>
