<?xml version="1.0" encoding="UTF-8"?>
<!DOCTYPE svg PUBLIC "-//W3C//DTD SVG 1.1//EN" "http://www.w3.org/Graphics/SVG/1.1/DTD/svg11.dtd">
<!-- Creator: CorelDRAW -->
<svg xmlns="http://www.w3.org/2000/svg" xml:space="preserve" width="25.8306mm" height="25.8306mm" version="1.1" style="shape-rendering:geometricPrecision; text-rendering:geometricPrecision; image-rendering:optimizeQuality; fill-rule:evenodd; clip-rule:evenodd"
viewBox="0 0 35.98 35.98"
 xmlns:xlink="http://www.w3.org/1999/xlink"
 xmlns:xodm="http://www.corel.com/coreldraw/odm/2003">
 <defs>
  <style type="text/css">
   <![CDATA[
    .fil1 {fill:#000037;fill-rule:nonzero}
    .fil0 {fill:white;fill-rule:nonzero}
   ]]>
  </style>
 </defs>
 <g id="Capa_x0020_1">
  <metadata id="CorelCorpID_0Corel-Layer"/>
  <rect class="fil0" x="-0" y="-0" width="35.98" height="35.98" rx="3.9" ry="3.9"/>
  <path class="fil1" d="M9.24 15.3c-0.49,0 -0.87,0.4 -0.87,0.87 0,5.01 3.84,9.14 8.75,9.59l0 5.4 -2.62 0c-0.49,0 -0.89,0.4 -0.89,0.89 0,0.48 0.4,0.87 0.89,0.87l6.98 0c0.49,0 0.89,-0.4 0.89,-0.87 0,-0.49 -0.4,-0.89 -0.89,-0.89l-2.62 0 0 -5.4c4.91,-0.45 8.75,-4.58 8.75,-9.59 0,-0.48 -0.38,-0.87 -0.87,-0.87 -0.48,0 -0.87,0.4 -0.87,0.87 0,4.35 -3.53,7.87 -7.87,7.87 -4.35,0 -7.87,-3.53 -7.87,-7.87 0,-0.48 -0.4,-0.87 -0.87,-0.87l0 0zm9.62 -10.41c1.71,0.35 3.06,1.7 3.41,3.41l-2.54 0c-0.48,0 -0.87,0.4 -0.87,0.87 0,0.48 0.4,0.87 0.87,0.87l2.64 0 0 1.75 -2.64 0c-0.48,0 -0.87,0.4 -0.87,0.89 0,0.48 0.4,0.87 0.87,0.87l2.64 0 0 1.75 -8.76 0 0 -1.75 2.64 0c0.48,0 0.87,-0.4 0.87,-0.87 0,-0.49 -0.4,-0.89 -0.87,-0.89l-2.64 0 0 -1.75 2.64 0c0.48,0 0.87,-0.4 0.87,-0.87 0,-0.48 -0.4,-0.87 -0.87,-0.87l-2.54 0c0.35,-1.71 1.7,-3.06 3.41,-3.41l0 0.77c0,0.49 0.4,0.89 0.87,0.89 0.48,0 0.87,-0.4 0.87,-0.89l0 -0.77 0 0zm3.41 12.16c-0.4,1.99 -2.17,3.51 -4.28,3.51 -2.11,0 -3.89,-1.52 -4.28,-3.51l8.57 0zm-4.28 -14c-3.38,0 -6.13,2.75 -6.13,6.13l0 7c0,3.38 2.75,6.13 6.13,6.13 3.38,0 6.13,-2.75 6.13,-6.13l0 -7c0,-3.38 -2.75,-6.13 -6.13,-6.13l0 0z"/>
 </g>
</svg>
