<?xml version="1.0" encoding="UTF-8"?>
<!DOCTYPE svg PUBLIC "-//W3C//DTD SVG 1.1//EN" "http://www.w3.org/Graphics/SVG/1.1/DTD/svg11.dtd">
<!-- Creator: CorelDRAW -->
<svg xmlns="http://www.w3.org/2000/svg" xml:space="preserve" width="25.8306mm" height="25.8306mm" version="1.1" style="shape-rendering:geometricPrecision; text-rendering:geometricPrecision; image-rendering:optimizeQuality; fill-rule:evenodd; clip-rule:evenodd"
viewBox="0 0 35.98 35.98"
 xmlns:xlink="http://www.w3.org/1999/xlink"
 xmlns:xodm="http://www.corel.com/coreldraw/odm/2003">
 <defs>
  <style type="text/css">
   <![CDATA[
    .fil1 {fill:#000037;fill-rule:nonzero}
    .fil0 {fill:white;fill-rule:nonzero}
   ]]>
  </style>
 </defs>
 <g id="Capa_x0020_1">
  <metadata id="CorelCorpID_0Corel-Layer"/>
  <rect class="fil0" x="-0" y="-0" width="35.98" height="35.98" rx="3.9" ry="3.9"/>
  <path class="fil1" d="M16.36 10.76c0.5,0 0.97,0.07 1.4,0.2 1.83,0.5 3.33,1.9 3.97,3.8 0.13,0.37 0.47,0.57 0.83,0.57 0.17,0 0.37,-0.03 0.5,-0.13 0.87,-0.63 1.87,-0.97 2.9,-0.97 0,0 0.03,0 0.03,0 0.77,0 1.53,0.2 2.23,0.57 1.8,0.93 2.9,2.8 2.9,4.93 0,3.03 -2.3,5.47 -5.17,5.47l-16.83 0c-2.37,0 -4.27,-2.03 -4.27,-4.53 0,-2.5 1.9,-4.53 4.27,-4.53 0.23,0 0.47,0.03 0.67,0.07 0.07,0 0.1,0 0.17,0 0.4,0 0.77,-0.27 0.83,-0.7 0.6,-2.73 2.93,-4.73 5.57,-4.73l0 0zm0 -1.73c-1.7,0 -3.37,0.63 -4.7,1.77 -1.1,0.97 -1.93,2.2 -2.37,3.6l-0.17 0c-3.3,0 -6,2.8 -6,6.27 0,3.47 2.7,6.3 6,6.3l16.83 0c3.83,0 6.9,-3.27 6.9,-7.23 0.03,-1.37 -0.33,-2.7 -1.03,-3.87 -0.67,-1.1 -1.63,-2 -2.8,-2.63 -0.97,-0.47 -2,-0.73 -3.07,-0.73 -1.03,0 -2.03,0.23 -3,0.7 -0.97,-1.93 -2.67,-3.37 -4.73,-3.93 -0.6,-0.13 -1.23,-0.23 -1.87,-0.23l0 0z"/>
 </g>
</svg>
