<?xml version="1.0" encoding="UTF-8"?>
<!DOCTYPE svg PUBLIC "-//W3C//DTD SVG 1.1//EN" "http://www.w3.org/Graphics/SVG/1.1/DTD/svg11.dtd">
<!-- Creator: CorelDRAW -->
<svg xmlns="http://www.w3.org/2000/svg" xml:space="preserve" width="32.7961mm" height="32.7961mm" version="1.1" style="shape-rendering:geometricPrecision; text-rendering:geometricPrecision; image-rendering:optimizeQuality; fill-rule:evenodd; clip-rule:evenodd"
viewBox="0 0 51.34 51.34"
 xmlns:xlink="http://www.w3.org/1999/xlink"
 xmlns:xodm="http://www.corel.com/coreldraw/odm/2003">
 <defs>
  <style type="text/css">
   <![CDATA[
    .fil1 {fill:#000037;fill-rule:nonzero}
    .fil0 {fill:white;fill-rule:nonzero}
   ]]>
  </style>
 </defs>
 <g id="Capa_x0020_1">
  <metadata id="CorelCorpID_0Corel-Layer"/>
  <rect class="fil0" x="0" y="0" width="51.34" height="51.34" rx="5.57" ry="5.57"/>
  <path class="fil1" d="M13.49 9.56l1.59 0 0.23 1.08 19.45 0 0.18 -1.08 1.68 0 3.36 9.34 -2.06 0.75c-0.99,-2.49 -2.16,-4.24 -3.51,-5.26 -1.35,-1.01 -3.09,-1.52 -5.2,-1.52 -0.89,0 -1.41,0.03 -1.57,0.1 -0.17,0.07 -0.29,0.19 -0.36,0.36 -0.07,0.16 -0.1,0.69 -0.1,1.59l0 22.06c0,1.05 0.05,1.77 0.17,2.13 0.11,0.37 0.27,0.65 0.49,0.84 0.21,0.2 0.5,0.34 0.87,0.43 0.37,0.09 1.2,0.13 2.48,0.15l0 1.92 -12.19 0 0 -1.92c1.35,-0.02 2.18,-0.06 2.49,-0.14 0.53,-0.15 0.91,-0.44 1.14,-0.86 0.23,-0.43 0.34,-1.21 0.34,-2.36l0 -22.54c0,-0.69 -0.03,-1.12 -0.1,-1.28 -0.07,-0.15 -0.2,-0.26 -0.39,-0.35 -0.19,-0.09 -0.58,-0.12 -1.17,-0.12 -1.66,0 -2.98,0.21 -3.98,0.64 -0.99,0.43 -1.93,1.14 -2.81,2.16 -0.88,1.02 -1.63,2.34 -2.25,3.97l-2.06 -0.75 3.27 -9.34z"/>
 </g>
</svg>
